<svg xmlns="http://www.w3.org/2000/svg" width="800" height="1200" viewBox="0 0 400 600" role="img" aria-label="THE LAST HORIZON movie poster">
<defs>
<linearGradient id="bg" x1="0" y1="0" x2="0" y2="1">
<stop offset="0" stop-color="#1b1040"/><stop offset="1" stop-color="#06030f"/>
</linearGradient>
<linearGradient id="vig" x1="0" y1="0" x2="0" y2="1">
<stop offset="0.55" stop-color="#000000" stop-opacity="0"/><stop offset="1" stop-color="#000000" stop-opacity="0.72"/>
</linearGradient>
</defs>
<rect width="400" height="600" fill="url(#bg)"/>
<circle cx="200" cy="185" r="92" fill="#a78bff" opacity="0.92"/>
<circle cx="168" cy="160" r="14" fill="#000000" opacity="0.12"/>
<circle cx="228" cy="205" r="9" fill="#000000" opacity="0.10"/>
<circle cx="200" cy="185" r="128" fill="none" stroke="#a78bff" stroke-opacity="0.30" stroke-width="2"/>
<circle cx="66" cy="90" r="3" fill="#ffffff" opacity="0.9"/><circle cx="120" cy="60" r="2" fill="#ffffff" opacity="0.7"/>
<circle cx="330" cy="80" r="2.5" fill="#ffffff" opacity="0.8"/><circle cx="360" cy="150" r="2" fill="#ffffff" opacity="0.6"/>
<circle cx="290" cy="55" r="1.6" fill="#ffffff" opacity="0.6"/><circle cx="40" cy="180" r="2" fill="#ffffff" opacity="0.5"/>
<path d="M0 430 L90 395 L200 425 L310 385 L400 415 L400 600 L0 600 Z" fill="#000000" opacity="0.5"/>
<rect width="400" height="600" fill="url(#vig)"/>
<text x="200" y="46" text-anchor="middle" font-family="'Segoe UI', Arial, sans-serif" font-size="11" letter-spacing="4" fill="#ffffff" opacity="0.55">A CINEVERSE PICTURE</text>
<text x="200" y="452" text-anchor="middle" font-family="'Segoe UI', Arial, sans-serif" font-weight="700" font-size="34" letter-spacing="2" fill="#ffffff">THE LAST</text><text x="200" y="496" text-anchor="middle" font-family="'Segoe UI', Arial, sans-serif" font-weight="700" font-size="34" letter-spacing="2" fill="#ffffff">HORIZON</text>
<text x="200" y="540" text-anchor="middle" font-family="'Segoe UI', Arial, sans-serif" font-size="13" letter-spacing="3" fill="#a78bff">2026 &#183; ACTION / SCI-FI</text>
</svg>