<svg xmlns="http://www.w3.org/2000/svg" width="800" height="1200" viewBox="0 0 400 600" role="img" aria-label="GLASS HARBOUR movie poster">
<defs>
<linearGradient id="bg" x1="0" y1="0" x2="0" y2="1">
<stop offset="0" stop-color="#3a5d72"/><stop offset="1" stop-color="#0d1620"/>
</linearGradient>
<linearGradient id="vig" x1="0" y1="0" x2="0" y2="1">
<stop offset="0.55" stop-color="#000000" stop-opacity="0"/><stop offset="1" stop-color="#000000" stop-opacity="0.72"/>
</linearGradient>
</defs>
<rect width="400" height="600" fill="url(#bg)"/>
<polygon points="176,600 190,300 210,300 224,600" fill="#0a0d14"/>
<rect x="186" y="272" width="28" height="30" fill="#0a0d14"/>
<circle cx="200" cy="287" r="9" fill="#f78fb3"/>
<polygon points="200,287 330,240 330,300" fill="#f78fb3" opacity="0.35"/>
<polygon points="200,287 96,250 96,308" fill="#f78fb3" opacity="0.22"/>
<path d="M0 520 Q100 490 200 520 T400 520 V600 H0 Z" fill="#000000" opacity="0.55"/>
<circle cx="70" cy="120" r="2.4" fill="#ffffff" opacity="0.8"/><circle cx="340" cy="90" r="2" fill="#ffffff" opacity="0.6"/>
<circle cx="300" cy="160" r="2.6" fill="#ffffff" opacity="0.7"/>
<rect width="400" height="600" fill="url(#vig)"/>
<text x="200" y="46" text-anchor="middle" font-family="'Segoe UI', Arial, sans-serif" font-size="11" letter-spacing="4" fill="#ffffff" opacity="0.55">A CINEVERSE PICTURE</text>
<text x="200" y="452" text-anchor="middle" font-family="'Segoe UI', Arial, sans-serif" font-weight="700" font-size="34" letter-spacing="2" fill="#ffffff">GLASS</text><text x="200" y="496" text-anchor="middle" font-family="'Segoe UI', Arial, sans-serif" font-weight="700" font-size="34" letter-spacing="2" fill="#ffffff">HARBOUR</text>
<text x="200" y="540" text-anchor="middle" font-family="'Segoe UI', Arial, sans-serif" font-size="13" letter-spacing="3" fill="#f78fb3">2022 &#183; DRAMA / ROMANCE</text>
</svg>