<svg xmlns="http://www.w3.org/2000/svg" width="800" height="1200" viewBox="0 0 400 600" role="img" aria-label="FROSTBITE PASS movie poster">
<defs>
<linearGradient id="bg" x1="0" y1="0" x2="0" y2="1">
<stop offset="0" stop-color="#51748f"/><stop offset="1" stop-color="#0a121c"/>
</linearGradient>
<linearGradient id="vig" x1="0" y1="0" x2="0" y2="1">
<stop offset="0.55" stop-color="#000000" stop-opacity="0"/><stop offset="1" stop-color="#000000" stop-opacity="0.72"/>
</linearGradient>
</defs>
<rect width="400" height="600" fill="url(#bg)"/>
<circle cx="300" cy="150" r="46" fill="#d7ecff" opacity="0.85"/>
<path d="M0 440 L110 255 L195 375 L275 225 L400 420 L400 600 L0 600 Z" fill="#000000" opacity="0.45"/>
<path d="M0 495 L145 345 L250 455 L330 365 L400 445 L400 600 L0 600 Z" fill="#000000" opacity="0.72"/>
<path d="M262 252 L275 225 L289 251 L275 243 Z" fill="#ffffff" opacity="0.55"/>
<path d="M97 282 L110 255 L124 281 L110 271 Z" fill="#ffffff" opacity="0.45"/>
<rect width="400" height="600" fill="url(#vig)"/>
<text x="200" y="46" text-anchor="middle" font-family="'Segoe UI', Arial, sans-serif" font-size="11" letter-spacing="4" fill="#ffffff" opacity="0.55">A CINEVERSE PICTURE</text>
<text x="200" y="452" text-anchor="middle" font-family="'Segoe UI', Arial, sans-serif" font-weight="700" font-size="34" letter-spacing="2" fill="#ffffff">FROSTBITE</text><text x="200" y="496" text-anchor="middle" font-family="'Segoe UI', Arial, sans-serif" font-weight="700" font-size="34" letter-spacing="2" fill="#ffffff">PASS</text>
<text x="200" y="540" text-anchor="middle" font-family="'Segoe UI', Arial, sans-serif" font-size="13" letter-spacing="3" fill="#d7ecff">2020 &#183; ADVENTURE / DRAMA</text>
</svg>